<svg baseProfile="full" height="325" version="1.1" width="600" xmlns="http://www.w3.org/2000/svg" xmlns:ev="http://www.w3.org/2001/xml-events" xmlns:xlink="http://www.w3.org/1999/xlink"><defs><marker id="id1" markerHeight="10" markerWidth="10" orient="auto" refX="2" refY="2"><circle cx="2" cy="2" fill="#000000" r="2" /></marker><marker id="id2" markerHeight="10" markerWidth="10" orient="auto" refX="6" refY="3"><path d="M0,0 L0,7 L6,3 L0,0" fill="#000000" /></marker></defs><text fill="#000000" font-family="Helevetica" font-size="8pt" stroke="none" text-anchor="middle" x="100" y="46">User</text><line stroke="#C0C0C0" stroke-dasharray="5 5" stroke-width="1" x1="100" x2="100" y1="50" y2="325" /><text fill="#000000" font-family="Helevetica" font-size="8pt" stroke="none" text-anchor="middle" x="200" y="46">Browser</text><line stroke="#C0C0C0" stroke-dasharray="5 5" stroke-width="1" x1="200" x2="200" y1="50" y2="325" /><text fill="#000000" font-family="Helevetica" font-size="8pt" stroke="none" text-anchor="middle" x="300" y="46">Server</text><line stroke="#C0C0C0" stroke-dasharray="5 5" stroke-width="1" x1="300" x2="300" y1="50" y2="325" /><text fill="#000000" font-family="Helevetica" font-size="8pt" stroke="none" text-anchor="middle" x="400" y="46">Database</text><line stroke="#C0C0C0" stroke-dasharray="5 5" stroke-width="1" x1="400" x2="400" y1="50" y2="325" /><rect fill="#CD3F85" fill-opacity="0.15" height="96.875" width="300" x="50.0" y="62.5" /><rect fill="none" height="96.875" stroke="#CD3F85" stroke-width="1" width="300" x="50.0" y="62.5" /><text fill="#CD3F85" font-family="Helevetica" font-size="6pt" stroke="none" text-anchor="middle" transform="rotate(180,50,110) translate(6,0)" writing-mode="tb" x="50.0" y="110.9375">Request</text><rect fill="#C0C0FF" fill-opacity="0.15" height="71.875" width="200" x="250.0" y="162.5" /><rect fill="none" height="71.875" stroke="#C0C0FF" stroke-width="1" width="200" x="250.0" y="162.5" /><text fill="#C0C0FF" font-family="Helevetica" font-size="6pt" stroke="none" text-anchor="middle" transform="rotate(180,250,198) translate(6,0)" writing-mode="tb" x="250.0" y="198.4375">Synthesis</text><rect fill="#CD853F" fill-opacity="0.15" height="71.875" width="300" x="50.0" y="237.5" /><rect fill="none" height="71.875" stroke="#CD853F" stroke-width="1" width="300" x="50.0" y="237.5" /><text fill="#CD853F" font-family="Helevetica" font-size="6pt" stroke="none" text-anchor="middle" transform="rotate(180,50,273) translate(6,0)" writing-mode="tb" x="50.0" y="273.4375">Response</text><line marker-end="url(#id2)" marker-start="url(#id1)" stroke="#000000" stroke-width="1" x1="100" x2="200" y1="75" y2="75" /><text fill="#000000" font-family="Helevetica" font-size="6pt" stroke="none" text-anchor="middle" x="150.0" y="71">Clicks on link</text><line marker-end="url(#id2)" marker-start="url(#id1)" stroke="#000000" stroke-width="1" x1="200" x2="300" y1="100" y2="100" /><text fill="#000000" font-family="Helevetica" font-size="6pt" stroke="none" text-anchor="middle" x="250.0" y="96">Opens socket using link address</text><line marker-end="url(#id2)" marker-start="url(#id1)" stroke="#000000" stroke-width="1" x1="300" x2="200" y1="125" y2="125" /><text fill="#000000" font-family="Helevetica" font-size="6pt" stroke="none" text-anchor="middle" x="250.0" y="121">Accepts connection</text><line marker-end="url(#id2)" marker-start="url(#id1)" stroke="#000000" stroke-width="1" x1="200" x2="300" y1="150" y2="150" /><text fill="#000000" font-family="Helevetica" font-size="6pt" stroke="none" text-anchor="middle" x="250.0" y="146">Requests page content</text><line marker-end="url(#id2)" marker-start="url(#id1)" stroke="#000000" stroke-width="1" x1="300" x2="400" y1="175" y2="175" /><text fill="#000000" font-family="Helevetica" font-size="6pt" stroke="none" text-anchor="middle" x="350.0" y="171">Requests page data</text><line marker-end="url(#id2)" marker-start="url(#id1)" stroke="#000000" stroke-width="1" x1="400" x2="300" y1="200" y2="200" /><text fill="#000000" font-family="Helevetica" font-size="6pt" stroke="none" text-anchor="middle" x="350.0" y="196">Returns page data</text><circle cx="300" cy="225" fill="#000000" r="2" /><text fill="#000000" font-family="Helevetica" font-size="6pt" stroke="none" text-anchor="middle" x="300.0" y="221">Generates page content</text><line marker-end="url(#id2)" marker-start="url(#id1)" stroke="#000000" stroke-width="1" x1="300" x2="200" y1="250" y2="250" /><text fill="#000000" font-family="Helevetica" font-size="6pt" stroke="none" text-anchor="middle" x="250.0" y="246">Returns page content</text><circle cx="200" cy="275" fill="#000000" r="2" /><text fill="#000000" font-family="Helevetica" font-size="6pt" stroke="none" text-anchor="middle" x="200.0" y="271">Rasterizes content</text><line marker-end="url(#id2)" marker-start="url(#id1)" stroke="#000000" stroke-width="1" x1="200" x2="100" y1="300" y2="300" /><text fill="#000000" font-family="Helevetica" font-size="6pt" stroke="none" text-anchor="middle" x="150.0" y="296">Presents content</text></svg>
