<svg baseProfile="full" height="425" version="1.1" width="600" xmlns="http://www.w3.org/2000/svg" xmlns:ev="http://www.w3.org/2001/xml-events" xmlns:xlink="http://www.w3.org/1999/xlink"><defs><marker id="id1" markerHeight="10" markerWidth="10" orient="auto" refX="2" refY="2"><circle cx="2" cy="2" fill="#000000" r="2" /></marker><marker id="id2" markerHeight="10" markerWidth="10" orient="auto" refX="6" refY="3"><path d="M0,0 L0,7 L6,3 L0,0" fill="#000000" /></marker></defs><text fill="#000000" font-family="Helevetica" font-size="8pt" stroke="none" text-anchor="middle" x="100" y="45">Power Manager</text><line stroke="#C0C0C0" stroke-dasharray="5 5" stroke-width="1" x1="100" x2="100" y1="50" y2="425" /><text fill="#000000" font-family="Helevetica" font-size="8pt" stroke="none" text-anchor="middle" x="200" y="45">Power Processor</text><line stroke="#C0C0C0" stroke-dasharray="5 5" stroke-width="1" x1="200" x2="200" y1="50" y2="425" /><text fill="#000000" font-family="Helevetica" font-size="8pt" stroke="none" text-anchor="middle" x="300" y="45">Data Bank</text><line stroke="#C0C0C0" stroke-dasharray="5 5" stroke-width="1" x1="300" x2="300" y1="50" y2="425" /><text fill="#000000" font-family="Helevetica" font-size="8pt" stroke="none" text-anchor="middle" x="400" y="45">Power TM/TC I/F</text><line stroke="#C0C0C0" stroke-dasharray="5 5" stroke-width="1" x1="400" x2="400" y1="50" y2="425" /><rect fill="#CD3F85" fill-opacity="0.15" height="146.875" width="300" x="50.0" y="62.5" /><rect fill="none" height="146.875" stroke="#CD3F85" stroke-width="1" width="300" x="50.0" y="62.5" /><text fill="#CD3F85" font-family="Helevetica" font-size="6pt" stroke="none" text-anchor="middle" transform="rotate(180,50,135) translate(6,0)" writing-mode="tb" x="50.0" y="135.9375">Calibration</text><rect fill="#C0C0FF" fill-opacity="0.15" height="146.875" width="300" x="50.0" y="212.5" /><rect fill="none" height="146.875" stroke="#C0C0FF" stroke-width="1" width="300" x="50.0" y="212.5" /><text fill="#C0C0FF" font-family="Helevetica" font-size="6pt" stroke="none" text-anchor="middle" transform="rotate(180,50,285) translate(6,0)" writing-mode="tb" x="50.0" y="285.9375">Processing</text><line marker-end="url(#id2)" marker-start="url(#id1)" stroke="#000000" stroke-width="1" x1="100" x2="200" y1="75" y2="75" /><text fill="#000000" font-family="Helevetica" font-size="6pt" stroke="none" text-anchor="middle" x="150.0" y="70">POW_perform_PCDU_TM_calibration</text><circle cx="200" cy="100" fill="#000000" r="2" /><text fill="#000000" font-family="Helevetica" font-size="6pt" stroke="none" text-anchor="middle" x="200.0" y="95">POW_calibrate_ATMs</text><line marker-end="url(#id2)" marker-start="url(#id1)" stroke="#000000" stroke-width="1" x1="200" x2="300" y1="125" y2="125" /><text fill="#000000" font-family="Helevetica" font-size="6pt" stroke="none" text-anchor="middle" x="250.0" y="120">DB_write</text><circle cx="200" cy="150" fill="#000000" r="2" /><text fill="#000000" font-family="Helevetica" font-size="6pt" stroke="none" text-anchor="middle" x="200.0" y="145">POW_calibrate_DTMs</text><line marker-end="url(#id2)" marker-start="url(#id1)" stroke="#000000" stroke-width="1" x1="200" x2="300" y1="175" y2="175" /><text fill="#000000" font-family="Helevetica" font-size="6pt" stroke="none" text-anchor="middle" x="250.0" y="170">DB_write</text><line marker-end="url(#id2)" marker-start="url(#id1)" stroke="#000000" stroke-width="1" x1="200" x2="100" y1="200" y2="200" /><text fill="#000000" font-family="Helevetica" font-size="6pt" stroke="none" text-anchor="middle" x="150.0" y="195">Calibration Done</text><line marker-end="url(#id2)" marker-start="url(#id1)" stroke="#000000" stroke-width="1" x1="100" x2="200" y1="225" y2="225" /><text fill="#000000" font-family="Helevetica" font-size="6pt" stroke="none" text-anchor="middle" x="150.0" y="220">POW_perform_PCDU_TM_processing</text><circle cx="200" cy="250" fill="#000000" r="2" /><text fill="#000000" font-family="Helevetica" font-size="6pt" stroke="none" text-anchor="middle" x="200.0" y="245">POW_calculate_total_current</text><line marker-end="url(#id2)" marker-start="url(#id1)" stroke="#000000" stroke-width="1" x1="200" x2="300" y1="275" y2="275" /><text fill="#000000" font-family="Helevetica" font-size="6pt" stroke="none" text-anchor="middle" x="250.0" y="270">DB_write</text><circle cx="200" cy="300" fill="#000000" r="2" /><text fill="#000000" font-family="Helevetica" font-size="6pt" stroke="none" text-anchor="middle" x="200.0" y="295">POW_calculate_discrete_states</text><line marker-end="url(#id2)" marker-start="url(#id1)" stroke="#000000" stroke-width="1" x1="200" x2="300" y1="325" y2="325" /><text fill="#000000" font-family="Helevetica" font-size="6pt" stroke="none" text-anchor="middle" x="250.0" y="320">DB_write</text><line marker-end="url(#id2)" marker-start="url(#id1)" stroke="#000000" stroke-width="1" x1="200" x2="100" y1="350" y2="350" /><text fill="#000000" font-family="Helevetica" font-size="6pt" stroke="none" text-anchor="middle" x="150.0" y="345">Processing Done</text><line marker-end="url(#id2)" marker-start="url(#id1)" stroke="#000000" stroke-width="1" x1="100" x2="400" y1="375" y2="375" /><text fill="#000000" font-family="Helevetica" font-size="6pt" stroke="none" text-anchor="middle" x="250.0" y="370">POW_handle_telecommand</text><line marker-end="url(#id2)" marker-start="url(#id1)" stroke="#000000" stroke-width="1" x1="400" x2="100" y1="400" y2="400" /><text fill="#000000" font-family="Helevetica" font-size="6pt" stroke="none" text-anchor="middle" x="250.0" y="395">TC handled</text></svg>
